<svg xmlns="http://www.w3.org/2000/svg" xmlns:xlink="http://www.w3.org/1999/xlink" version="1.1" id="Layer_1" x="0px" y="0px" width="80px" height="80px" viewBox="0 0 100 100"  enable-background="new 0 0 100 100" xml:space="preserve">
<rect style="fill:#BB3900;" width="100%" height="100%" rx="10" ry="10" />
<g>
	<path style="fill:#FFF;" d="M29.183,21.696c4.731,1.635,11.989,2.596,19.808,2.596c7.474,0,14.523-0.891,19.255-2.41   c1.668,1.998,2.669,4.554,2.669,9.583v15.971l-0.027,0.049l-0.004,0.52c-0.159,22.584-0.517,38.301-0.91,40.112l-0.024,0.076   C69.23,90.371,67.046,97,48.439,97c-17.904,0-20.672-5.975-22.159-9.185c-0.103-0.222-0.2-0.433-0.295-0.629   c-0.193-0.56-0.764-3.738-0.456-21.424l0.025-1.424l-0.08-0.029l0.738-29.371l0-0.036v-0.025v-0.077v-0.611V29.3   C26.213,25.163,27.514,23.34,29.183,21.696 M28.715,19.383c-2.449,2.281-4.502,4.41-4.502,9.917c0,5.588,0,5.588,0,5.588   l-0.774,30.806l0.091,0.033c-0.18,10.329-0.148,20.675,0.641,22.3C25.815,91.413,28.078,99,48.439,99   c20.36,0,22.623-7.813,23.446-10.297c0.653-1.972,0.918-29.487,0.997-40.684l0.031-0.055c0,0,0-10.032,0-16.498   s-1.586-9.402-4.089-11.905c-4.299,1.648-11.578,2.731-19.835,2.731C40.442,22.292,32.946,21.13,28.715,19.383L28.715,19.383z"/>
</g>
<g>
	<path style="fill:#FFF;" d="M68.654,50.97c-0.576,2.797-9.513,5.02-20.453,5.02c-11.313,0-20.484-2.376-20.484-5.307v34.229   c0,0,0.635,9.933,21.225,9.933s18.805-10.461,18.805-10.461L68.654,50.97z"/>
</g>
<ellipse style="fill:#FFF;" cx="48.201" cy="48.913" rx="20.484" ry="5.306"/>
<path style="fill:#FFF;" d="M72.911,6.169C72.853,2.76,62.166,0,48.99,0C35.814,0,25.128,2.76,25.069,6.169c0-0.009-0.003-0.019-0.003-0.028v8.02  c0,3.423,10.711,6.198,23.924,6.198s23.924-2.774,23.924-6.198v-8.02C72.914,6.15,72.911,6.16,72.911,6.169z M48.99,2  c12.968,0,20.98,2.679,21.89,4.198c-0.908,1.519-8.921,4.198-21.89,4.198c-12.968,0-20.981-2.679-21.89-4.198  C28.009,4.679,36.022,2,48.99,2z"/>
</svg>