<svg xmlns="http://www.w3.org/2000/svg" xmlns:xlink="http://www.w3.org/1999/xlink" version="1.1" id="Calque_2" x="0px" y="0px" width="80px" height="80px" viewBox="0 0 100 100" enable-background="new 0 0 100 100" xml:space="preserve">
<path style="fill:#FFF;" d="M43.906,49.682L20.649,87.543c-0.504,0.822-0.008,2.044,1.107,2.73c1.118,0.687,2.433,0.576,2.938-0.246l23.245-37.869  C46.97,51.864,44.531,50.406,43.906,49.682z"/>
<path style="fill:#FFF;" d="M78.223,32.979c0.072-0.7,0.109-1.411,0.109-2.13c0-11.435-9.27-20.704-20.703-20.704c-4.219,0-8.138,1.269-11.41,3.435  c-4.066,0.385-5.635,2.232-6.673,3.774L37.094,21.4c-1.573,2.537-0.948,6.787-0.083,7.747c-0.046,0.562-0.086,1.127-0.086,1.701  c0,11.434,9.269,20.703,20.704,20.703c3.881,0,7.5-1.088,10.604-2.946c3.62-0.171,6.36-1.981,7.658-4.041l2.523-4.295  C79.861,37.228,78.666,33.687,78.223,32.979z M72.21,42.665c-5.21,0.773-13.825-1.63-19.799-7.382  c3.776,2.155,11.993,6.292,18.277,6.052c4.904-0.188,7.005-2.975,7.269-3.643C78.5,38.562,77.42,41.892,72.21,42.665z"/>
</svg>